<svg width="18" height="6" viewBox="0 0 18 6" fill="none" xmlns="http://www.w3.org/2000/svg">
<path fill-rule="evenodd" clip-rule="evenodd" d="M2.89844 5.02499C2.29687 5.02499 1.78841 4.82448 1.37305 4.42343C0.95768 4.02239 0.75 3.53541 0.75 2.96249C0.75 2.38957 0.95768 1.9026 1.37305 1.50156C1.78841 1.10051 2.29687 0.899994 2.89844 0.899994C3.5 0.899994 4.00846 1.10051 4.42383 1.50156C4.83919 1.9026 5.04688 2.38957 5.04688 2.96249C5.04688 3.53541 4.83919 4.02239 4.42383 4.42343C4.00846 4.82448 3.5 5.02499 2.89844 5.02499ZM9 5.02499C8.39843 5.02499 7.88998 4.82448 7.47461 4.42343C7.05924 4.02239 6.85156 3.53541 6.85156 2.96249C6.85156 2.38957 7.05924 1.9026 7.47461 1.50156C7.88998 1.10051 8.39843 0.899994 9 0.899994C9.60157 0.899994 10.11 1.10051 10.5254 1.50156C10.9408 1.9026 11.1484 2.38957 11.1484 2.96249C11.1484 3.53541 10.9408 4.02239 10.5254 4.42343C10.11 4.82448 9.60157 5.02499 9 5.02499ZM15.1016 5.02499C14.5 5.02499 13.9915 4.82448 13.5762 4.42343C13.1608 4.02239 12.9531 3.53541 12.9531 2.96249C12.9531 2.38957 13.1608 1.9026 13.5762 1.50156C13.9915 1.10051 14.5 0.899994 15.1016 0.899994C15.7031 0.899994 16.2116 1.10051 16.627 1.50156C17.0423 1.9026 17.25 2.38957 17.25 2.96249C17.25 3.53541 17.0423 4.02239 16.627 4.42343C16.2116 4.82448 15.7031 5.02499 15.1016 5.02499Z" fill="#B7BDC9"/>
</svg>
