<svg width="18" height="18" viewBox="0 0 18 18" fill="none" xmlns="http://www.w3.org/2000/svg">
<path d="M13.9999 8.16665V9.83331H7.33325L10.2499 12.75L9.06659 13.9333L4.13325 8.99998L9.06659 4.06665L10.2499 5.24998L7.33325 8.16665H13.9999ZM0.666586 8.99998C0.666586 6.78984 1.54456 4.67023 3.10736 3.10742C4.67017 1.54462 6.78978 0.666647 8.99992 0.666647C10.0943 0.666647 11.1779 0.882195 12.1889 1.30098C13.2 1.71977 14.1187 2.3336 14.8925 3.10742C16.4553 4.67023 17.3333 6.78984 17.3333 8.99998C17.3333 11.2101 16.4553 13.3297 14.8925 14.8925C13.3297 16.4553 11.2101 17.3333 8.99992 17.3333C7.90557 17.3333 6.82194 17.1178 5.81089 16.699C4.79984 16.2802 3.88118 15.6664 3.10736 14.8925C2.33354 14.1187 1.71971 13.2001 1.30092 12.189C0.882133 11.178 0.666586 10.0943 0.666586 8.99998ZM2.33325 8.99998C2.33325 10.7681 3.03563 12.4638 4.28587 13.714C5.53612 14.9643 7.23181 15.6666 8.99992 15.6666C10.768 15.6666 12.4637 14.9643 13.714 13.714C14.9642 12.4638 15.6666 10.7681 15.6666 8.99998C15.6666 7.23187 14.9642 5.53618 13.714 4.28593C12.4637 3.03569 10.768 2.33331 8.99992 2.33331C7.23181 2.33331 5.53612 3.03569 4.28587 4.28593C3.03563 5.53618 2.33325 7.23187 2.33325 8.99998Z" fill="#B7BDC9"/>
</svg>
