<svg width="18" height="18" viewBox="0 0 18 18" fill="none" xmlns="http://www.w3.org/2000/svg">
<path d="M3.99996 9.83335V8.16669H10.6666L7.74996 5.25002L8.93329 4.06669L13.8666 9.00002L8.93329 13.9334L7.74996 12.75L10.6666 9.83335H3.99996ZM17.3333 9.00002C17.3333 11.2102 16.4553 13.3298 14.8925 14.8926C13.3297 16.4554 11.2101 17.3334 8.99996 17.3334C7.90561 17.3334 6.82198 17.1178 5.81093 16.699C4.79988 16.2802 3.88122 15.6664 3.1074 14.8926C1.5446 13.3298 0.666626 11.2102 0.666626 9.00002C0.666626 6.78988 1.5446 4.67027 3.1074 3.10746C4.67021 1.54466 6.78982 0.666687 8.99996 0.666687C10.0943 0.666687 11.1779 0.882235 12.189 1.30102C13.2 1.71981 14.1187 2.33364 14.8925 3.10746C15.6663 3.88129 16.2802 4.79994 16.699 5.81099C17.1177 6.82204 17.3333 7.90567 17.3333 9.00002ZM15.6666 9.00002C15.6666 7.23191 14.9642 5.53622 13.714 4.28598C12.4638 3.03573 10.7681 2.33335 8.99996 2.33335C7.23185 2.33335 5.53616 3.03573 4.28591 4.28598C3.03567 5.53622 2.33329 7.23191 2.33329 9.00002C2.33329 10.7681 3.03567 12.4638 4.28591 13.7141C5.53616 14.9643 7.23185 15.6667 8.99996 15.6667C10.7681 15.6667 12.4638 14.9643 13.714 13.7141C14.9642 12.4638 15.6666 10.7681 15.6666 9.00002Z" fill="#B7BDC9"/>
</svg>
